<svg xmlns="http://www.w3.org/2000/svg" viewBox="0 0 80 100" preserveAspectRatio="none" shape-rendering="crispEdges"><g fill="#000"><rect x="6" y="0" width="1" height="1"/><rect x="37" y="0" width="1" height="1"/><rect x="39" y="0" width="11" height="1"/><rect x="52" y="0" width="6" height="1"/><rect x="62" y="0" width="3" height="1"/><rect x="68" y="0" width="4" height="1"/><rect x="5" y="1" width="1" height="1"/><rect x="8" y="1" width="2" height="1"/><rect x="11" y="1" width="4" height="1"/><rect x="24" y="1" width="1" height="1"/><rect x="34" y="1" width="1" height="1"/><rect x="38" y="1" width="22" height="1"/><rect x="62" y="1" width="4" height="1"/><rect x="68" y="1" width="4" height="1"/><rect x="3" y="2" width="1" height="1"/><rect x="8" y="2" width="1" height="1"/><rect x="10" y="2" width="4" height="1"/><rect x="34" y="2" width="38" height="1"/><rect x="74" y="2" width="1" height="1"/><rect x="2" y="3" width="25" height="1"/><rect x="34" y="3" width="42" height="1"/><rect x="77" y="3" width="2" height="1"/><rect x="2" y="4" width="26" height="1"/><rect x="34" y="4" width="39" height="1"/><rect x="74" y="4" width="5" height="1"/><rect x="2" y="5" width="24" height="1"/><rect x="27" y="5" width="1" height="1"/><rect x="34" y="5" width="45" height="1"/><rect x="1" y="6" width="27" height="1"/><rect x="32" y="6" width="1" height="1"/><rect x="34" y="6" width="45" height="1"/><rect x="1" y="7" width="1" height="1"/><rect x="3" y="7" width="76" height="1"/><rect x="1" y="8" width="1" height="1"/><rect x="3" y="8" width="76" height="1"/><rect x="1" y="9" width="78" height="1"/><rect x="1" y="10" width="76" height="1"/><rect x="78" y="10" width="1" height="1"/><rect x="1" y="11" width="76" height="1"/><rect x="78" y="11" width="1" height="1"/><rect x="1" y="12" width="78" height="1"/><rect x="2" y="13" width="78" height="1"/><rect x="2" y="14" width="76" height="1"/><rect x="79" y="14" width="1" height="1"/><rect x="7" y="15" width="73" height="1"/><rect x="7" y="16" width="72" height="1"/><rect x="6" y="17" width="73" height="1"/><rect x="7" y="18" width="71" height="1"/><rect x="7" y="19" width="72" height="1"/><rect x="7" y="20" width="72" height="1"/><rect x="4" y="21" width="1" height="1"/><rect x="7" y="21" width="72" height="1"/><rect x="7" y="22" width="73" height="1"/><rect x="7" y="23" width="73" height="1"/><rect x="7" y="24" width="73" height="1"/><rect x="6" y="25" width="74" height="1"/><rect x="7" y="26" width="73" height="1"/><rect x="7" y="27" width="73" height="1"/><rect x="7" y="28" width="73" height="1"/><rect x="7" y="29" width="73" height="1"/><rect x="6" y="30" width="74" height="1"/><rect x="7" y="31" width="73" height="1"/><rect x="5" y="32" width="1" height="1"/><rect x="7" y="32" width="73" height="1"/><rect x="7" y="33" width="73" height="1"/><rect x="7" y="34" width="73" height="1"/><rect x="5" y="35" width="1" height="1"/><rect x="7" y="35" width="73" height="1"/><rect x="7" y="36" width="72" height="1"/><rect x="7" y="37" width="73" height="1"/><rect x="6" y="38" width="74" height="1"/><rect x="6" y="39" width="74" height="1"/><rect x="6" y="40" width="74" height="1"/><rect x="7" y="41" width="73" height="1"/><rect x="3" y="42" width="1" height="1"/><rect x="5" y="42" width="75" height="1"/><rect x="5" y="43" width="74" height="1"/><rect x="5" y="44" width="1" height="1"/><rect x="7" y="44" width="71" height="1"/><rect x="5" y="45" width="1" height="1"/><rect x="7" y="45" width="73" height="1"/><rect x="5" y="46" width="1" height="1"/><rect x="7" y="46" width="71" height="1"/><rect x="7" y="47" width="1" height="1"/><rect x="9" y="47" width="69" height="1"/><rect x="5" y="48" width="74" height="1"/><rect x="3" y="49" width="1" height="1"/><rect x="5" y="49" width="74" height="1"/><rect x="5" y="50" width="73" height="1"/><rect x="79" y="50" width="1" height="1"/><rect x="5" y="51" width="73" height="1"/><rect x="79" y="51" width="1" height="1"/><rect x="6" y="52" width="73" height="1"/><rect x="6" y="53" width="74" height="1"/><rect x="6" y="54" width="74" height="1"/><rect x="5" y="55" width="73" height="1"/><rect x="79" y="55" width="1" height="1"/><rect x="5" y="56" width="73" height="1"/><rect x="5" y="57" width="73" height="1"/><rect x="5" y="58" width="74" height="1"/><rect x="5" y="59" width="74" height="1"/><rect x="0" y="60" width="79" height="1"/><rect x="0" y="61" width="77" height="1"/><rect x="0" y="62" width="78" height="1"/><rect x="0" y="63" width="80" height="1"/><rect x="0" y="64" width="79" height="1"/><rect x="0" y="65" width="79" height="1"/><rect x="0" y="66" width="80" height="1"/><rect x="2" y="67" width="77" height="1"/><rect x="2" y="68" width="69" height="1"/><rect x="72" y="68" width="1" height="1"/><rect x="2" y="69" width="71" height="1"/><rect x="2" y="70" width="71" height="1"/><rect x="2" y="71" width="71" height="1"/><rect x="2" y="72" width="71" height="1"/><rect x="3" y="73" width="71" height="1"/><rect x="1" y="74" width="76" height="1"/><rect x="1" y="75" width="77" height="1"/><rect x="0" y="76" width="78" height="1"/><rect x="0" y="77" width="78" height="1"/><rect x="0" y="78" width="79" height="1"/><rect x="6" y="79" width="73" height="1"/><rect x="6" y="80" width="73" height="1"/><rect x="7" y="81" width="72" height="1"/><rect x="6" y="82" width="73" height="1"/><rect x="7" y="83" width="71" height="1"/><rect x="7" y="84" width="72" height="1"/><rect x="7" y="85" width="69" height="1"/><rect x="77" y="85" width="1" height="1"/><rect x="6" y="86" width="1" height="1"/><rect x="8" y="86" width="70" height="1"/><rect x="4" y="87" width="1" height="1"/><rect x="6" y="87" width="72" height="1"/><rect x="7" y="88" width="71" height="1"/><rect x="5" y="89" width="69" height="1"/><rect x="6" y="90" width="68" height="1"/><rect x="76" y="90" width="1" height="1"/><rect x="6" y="91" width="68" height="1"/><rect x="76" y="91" width="1" height="1"/><rect x="6" y="92" width="68" height="1"/><rect x="7" y="93" width="67" height="1"/><rect x="5" y="94" width="3" height="1"/><rect x="9" y="94" width="65" height="1"/><rect x="4" y="95" width="4" height="1"/><rect x="11" y="95" width="35" height="1"/><rect x="47" y="95" width="1" height="1"/><rect x="49" y="95" width="4" height="1"/><rect x="54" y="95" width="18" height="1"/><rect x="73" y="95" width="1" height="1"/><rect x="9" y="96" width="1" height="1"/><rect x="12" y="96" width="17" height="1"/><rect x="30" y="96" width="6" height="1"/><rect x="37" y="96" width="6" height="1"/><rect x="44" y="96" width="2" height="1"/><rect x="49" y="96" width="5" height="1"/><rect x="55" y="96" width="1" height="1"/><rect x="57" y="96" width="17" height="1"/><rect x="12" y="97" width="7" height="1"/><rect x="22" y="97" width="2" height="1"/><rect x="25" y="97" width="4" height="1"/><rect x="30" y="97" width="5" height="1"/><rect x="57" y="97" width="9" height="1"/><rect x="68" y="97" width="6" height="1"/><rect x="11" y="98" width="4" height="1"/><rect x="22" y="98" width="2" height="1"/><rect x="25" y="98" width="2" height="1"/><rect x="31" y="98" width="3" height="1"/><rect x="49" y="98" width="1" height="1"/><rect x="59" y="98" width="4" height="1"/><rect x="68" y="98" width="6" height="1"/><rect x="24" y="99" width="2" height="1"/><rect x="27" y="99" width="1" height="1"/><rect x="42" y="99" width="1" height="1"/><rect x="60" y="99" width="1" height="1"/><rect x="69" y="99" width="1" height="1"/><rect x="71" y="99" width="4" height="1"/></g></svg>